<svg xmlns="http://www.w3.org/2000/svg" width="70" height="70" viewBox="0 0 70 70" fill="none">
  <path d="M0 28.8C0 18.7191 0 13.6786 1.96188 9.82817C3.6876 6.44125 6.44125 3.6876 9.82817 1.96188C13.6786 0 18.7191 0 28.8 0H41.2C51.2809 0 56.3214 0 60.1718 1.96188C63.5587 3.6876 66.3124 6.44125 68.0381 9.82817C70 13.6786 70 18.7191 70 28.8V41.2C70 51.2809 70 56.3214 68.0381 60.1718C66.3124 63.5587 63.5587 66.3124 60.1718 68.0381C56.3214 70 51.2809 70 41.2 70H28.8C18.7191 70 13.6786 70 9.82817 68.0381C6.44125 66.3124 3.6876 63.5587 1.96188 60.1718C0 56.3214 0 51.2809 0 41.2V28.8Z" fill="#DBDBDB"/>
  <path d="M56.3913 35C56.3913 23.1859 46.8141 13.6087 35 13.6087C23.1859 13.6087 13.6087 23.1859 13.6087 35C13.6087 46.8141 23.1859 56.3913 35 56.3913C46.8141 56.3913 56.3913 46.8141 56.3913 35ZM59 35C59 48.2548 48.2548 59 35 59C21.7452 59 11 48.2548 11 35C11 21.7452 21.7452 11 35 11C48.2548 11 59 21.7452 59 35Z" fill="#16A34A"/>
  <path d="M28.4313 17.3756C30.487 16.5043 32.7304 16.1965 35 16.1965C43.7861 16.1965 51.2157 22.2278 53.2504 30.4556C50.9809 28.8852 48.273 28.0243 45.4348 28.0243C40.8957 28.0243 36.6539 30.2626 34.0922 33.9982C33.967 34.1756 33.847 34.3635 33.7322 34.5461C33.7217 34.5565 33.7165 34.5669 33.7113 34.5722C31.6191 37.5513 28.2017 39.3356 24.5652 39.3356C24.5339 39.3356 24.5026 39.3356 24.4661 39.3356C18.9826 39.2887 15.3096 33.7269 17.1461 28.5565C18.4922 24.7739 21.5548 20.2922 28.4261 17.3756H28.4313Z" fill="#DC2626"/>
  <path d="M41.5583 52.6088C39.5026 53.4801 37.2591 53.7879 34.9896 53.7879C26.2035 53.7879 18.7739 47.7566 16.7391 39.5288C19.0087 41.0992 21.7165 41.9601 24.5548 41.9601C29.0939 41.9601 33.3357 39.7218 35.8974 35.9862C36.0226 35.8088 36.1426 35.621 36.2574 35.4383C36.2678 35.4279 36.273 35.4175 36.2783 35.4123C38.3704 32.4331 41.7878 30.6488 45.4244 30.6488C45.4557 30.6488 45.487 30.6488 45.5235 30.6488C51.007 30.6957 54.68 36.2575 52.8435 41.4279C51.4974 45.2105 48.4348 49.6923 41.5635 52.6088H41.5583Z" fill="#2563EB"/>
  <path d="M45.5235 30.6488C51.007 30.6957 54.68 36.2575 52.8435 41.4279L52.7121 41.7846C51.3249 45.4294 48.3191 49.6453 41.883 52.4711L41.5635 52.6088H41.5583C39.5026 53.4801 37.2591 53.7879 34.9896 53.7879L34.9898 51.179C37.0373 51.179 38.9067 50.8993 40.5404 50.2069L40.6943 50.1416C46.7362 47.5317 49.2752 43.6739 50.3857 40.5532C51.638 37.0245 49.1621 33.403 45.6681 33.2615L45.501 33.2575H45.4246C42.6425 33.2575 40.0196 34.6243 38.4132 36.9117L38.3984 36.9326C38.2976 37.0917 38.1782 37.2756 38.0484 37.4609C35.0005 41.9055 29.9547 44.5685 24.555 44.5686C23.6079 44.5686 22.6721 44.4874 21.7563 44.3297C24.6947 48.4841 29.5395 51.179 34.9898 51.179L34.9896 53.7879L34.5786 53.7836C25.9726 53.599 18.7421 47.628 16.7391 39.5288C18.9378 41.0501 21.5477 41.9054 24.2891 41.9574L24.5548 41.9601C28.952 41.96 33.0701 39.8593 35.6522 36.3319L35.8974 35.9862C35.96 35.8975 36.0212 35.8062 36.0812 35.7143L36.2574 35.4383C36.2678 35.4279 36.273 35.4175 36.2783 35.4123C38.3051 32.5262 41.5757 30.7613 45.0842 30.6539L45.4244 30.6488H45.5235Z" fill="#DC2626"/>
</svg>