<svg xmlns="http://www.w3.org/2000/svg" width="568" height="235" viewBox="0 0 568 235" fill="none">
  <path fill-rule="evenodd" clip-rule="evenodd" d="M556.253 97.7283C553.026 97.7283 549.714 96.5473 547.834 95.5743C509.611 75.6694 466.254 63.8971 424.152 63.8971C418.872 63.8971 414.965 64.1182 410.052 64.6037C417.992 77.2302 431.671 95.5952 441.051 106.853C443.482 109.773 444.21 111.534 444.21 114.353C444.21 119.258 439.044 124.013 433.551 124.013C429.883 124.013 427.691 122.565 424.292 118.578C412.879 105.187 395.74 81.4496 387.615 67.9769C347.652 75.0493 303.108 98.6467 276.784 119.493C273.77 121.906 271.679 122.898 268.659 122.898C263.066 122.898 258.206 118.079 258.206 112.579C258.206 109.4 259.379 107.001 263.493 103.573C303.67 70.1309 366.07 43.7201 419.058 43.7201C440.07 43.7201 460.334 46.632 479.94 51.4258C491.832 54.332 509.484 60.2504 524.503 66.8034C485.112 42.9927 435.716 21.2414 404.487 21.2414C396.526 21.2414 391.647 23.9077 391.647 29.2797C391.647 32.4336 393.414 36.6604 396.033 40.9121C389.788 41.5452 381.555 42.8187 375.323 44.4855C372.064 38.52 369.804 32.1463 369.804 25.3134C369.804 10.0757 379.728 0.708984 399.706 0.708984C444.975 0.708984 521.048 42.8998 559.02 73.7174C563.366 77.249 567.646 81.6289 567.646 86.761C567.646 91.8421 563.245 97.7283 556.253 97.7283Z" fill="#F25900"/>
  <path fill-rule="evenodd" clip-rule="evenodd" d="M64.3028 187.494C64.3028 184.78 65.9483 183.093 68.4747 183.093C71.0032 183.093 72.5754 184.78 72.5754 187.494V192.079C74.7825 187.56 79.6687 183.093 84.0603 183.093C86.8946 183.093 88.2609 184.754 88.2609 186.959C88.2609 189.113 87.0817 190.719 83.448 191.739C75.8955 193.833 72.5885 198.058 72.5885 206.151V229.596C72.5885 232.315 71.0032 233.995 68.4747 233.995C65.9483 233.995 64.3028 232.315 64.3028 229.596V187.494ZM249.966 187.494C249.966 184.78 251.607 183.093 254.133 183.093C256.659 183.093 258.232 184.78 258.232 187.494V192.079C260.439 187.56 265.325 183.093 269.719 183.093C272.551 183.093 273.925 184.754 273.925 186.959C273.925 189.113 272.744 190.719 269.104 191.739C261.552 193.833 258.252 198.058 258.252 206.151V229.596C258.252 232.315 256.659 233.995 254.133 233.995C251.607 233.995 249.966 232.315 249.966 229.596V187.494ZM111.845 183.093C119.938 183.093 125.138 186.346 125.138 189.26C125.138 191.012 123.844 192.76 121.879 192.76C118.851 192.76 117.417 190.313 111.845 190.313C102.454 190.313 97.6255 198.718 97.6255 208.543C97.6255 219.19 103.066 226.782 111.845 226.782C117.979 226.782 119.318 224.25 122.198 224.25C124.071 224.25 125.21 225.516 125.21 227.457C125.21 229.329 123.657 230.856 120.864 232.143C118.432 233.269 115.205 233.995 111.845 233.995C97.7598 233.995 89.3076 223.422 89.3076 208.543C89.3076 193.986 97.8392 183.093 111.845 183.093ZM137.269 211.724C137.423 219.864 142.696 226.782 151.961 226.782C161.694 226.782 164.002 221.331 167.514 221.331C169.493 221.331 170.874 222.663 170.874 224.749C170.874 228.783 161.982 233.995 152.042 233.995C144.595 233.995 139.609 231.636 135.882 227.863C131.157 223.069 128.949 215.983 128.949 208.543C128.949 194.952 137.369 183.093 151.309 183.093C164.273 183.093 172.686 194.546 172.686 207.331C172.686 210.231 171.507 211.724 168.1 211.724H137.269ZM164.4 205.55C164.4 198.438 160.354 190.313 151.275 190.313C142.348 190.313 137.576 197.312 137.269 205.55H164.4ZM189.651 229.596C189.651 232.315 188.045 233.995 185.518 233.995C182.992 233.995 181.372 232.315 181.372 229.596V170.653C181.372 167.934 182.992 166.254 185.518 166.254C188.045 166.254 189.651 167.934 189.651 170.653V229.596ZM219.796 234.015C206.623 234.015 197.865 223.517 197.865 208.543C197.865 193.58 206.623 183.079 219.796 183.079C232.968 183.079 241.726 193.58 241.726 208.543C241.726 223.517 232.968 234.015 219.796 234.015ZM219.796 226.782C227.868 226.782 233.4 219.737 233.4 208.543C233.4 197.352 227.868 190.313 219.796 190.313C211.723 190.313 206.183 197.352 206.183 208.543C206.183 219.737 211.723 226.782 219.796 226.782ZM331.406 186.526C326.786 202.399 319.199 228.483 318.58 230.629C317.886 233.003 316.441 233.995 314.181 233.995C311.913 233.995 310.515 233.156 309.782 230.629C309.134 228.403 301.182 201.065 296.609 185.36C295.855 182.766 295.156 179.701 294.629 177.114C294.31 179.646 293.909 182.613 293.463 185.379C291.103 200.218 287.43 223.356 286.409 229.888C285.963 232.763 284.503 233.995 282.097 233.995C279.837 233.995 278.397 232.475 278.397 230.07C278.397 229.136 278.583 227.916 278.856 226.328C278.856 226.328 287.169 176.347 287.83 172.52C288.543 168.441 290.655 166.254 294.109 166.254C297.169 166.254 299.603 168.055 300.576 171.455C301.182 173.567 307.875 197.045 312.134 211.884C312.915 214.624 313.701 217.85 314.3 220.764C314.874 217.91 315.607 214.825 316.373 212.157C320.62 197.325 327.445 173.575 328.052 171.455C329.025 168.055 331.193 166.254 334.252 166.254C337.491 166.254 339.864 168.367 340.525 172.52C341.132 176.354 349.505 226.328 349.505 226.328C349.777 227.916 349.956 229.136 349.956 230.07C349.956 232.475 348.516 233.995 346.264 233.995C343.859 233.995 342.398 232.763 341.944 229.888C340.958 223.543 337.464 201.526 335.098 186.666C334.611 183.633 334.172 180.2 333.798 177.048C333.199 179.793 332.385 183.166 331.406 186.526ZM364.529 168.501C367.335 168.501 369.582 170.74 369.582 173.548C369.582 176.36 367.335 178.607 364.529 178.607C361.723 178.607 359.476 176.36 359.476 173.548C359.476 170.74 361.723 168.501 364.529 168.501ZM368.682 187.494C368.682 184.78 367.055 183.093 364.529 183.093C362.003 183.093 360.396 184.78 360.396 187.494V229.596C360.396 232.315 362.003 233.995 364.529 233.995C367.055 233.995 368.682 232.315 368.682 229.596V187.494ZM383.081 172.895C383.081 170.181 384.695 168.501 387.221 168.501C389.74 168.501 391.367 170.181 391.367 172.895V183.659H394.74C397.453 183.659 398.853 184.986 398.853 187.233C398.853 189.479 397.453 190.819 394.74 190.819H391.367V229.596C391.367 232.315 389.74 233.995 387.221 233.995C384.695 233.995 383.081 232.315 383.081 229.596V190.819H380.08C377.369 190.819 375.961 189.479 375.961 187.233C375.961 184.986 377.369 183.659 380.08 183.659H383.081V172.895ZM409.199 172.895C409.199 170.181 410.826 168.501 413.352 168.501C415.879 168.501 417.485 170.181 417.485 172.895V183.659H420.85C423.564 183.659 424.971 184.986 424.971 187.233C424.971 189.479 423.564 190.819 420.85 190.819H417.485V229.596C417.485 232.315 415.879 233.995 413.352 233.995C410.826 233.995 409.199 232.315 409.199 229.596V190.819H406.179C403.466 190.819 402.06 189.479 402.06 187.233C402.06 184.986 403.466 183.659 406.179 183.659H409.199V172.895ZM55.4045 226.416C53.6701 221.776 37.4913 178.287 34.9781 171.581C33.712 168.214 31.7788 166.254 28.5856 166.254C25.3126 166.254 23.5725 168.214 22.3008 171.581C21.1539 174.593 3.54079 221.784 1.78154 226.416C1.01441 228.456 0.716064 229.548 0.716064 230.429C0.716064 232.502 2.49587 233.995 4.64063 233.995C6.86831 233.995 8.1478 232.842 8.84122 230.909C9.26075 229.743 11.5547 223.322 14.474 215.136H42.6915C45.4521 222.863 47.6649 229.076 48.3243 230.909C48.9571 232.655 50.1041 233.995 52.3509 233.995C54.5031 233.995 56.5231 232.681 56.5231 230.537C56.5231 229.582 56.3042 228.829 55.4045 226.416ZM17.0876 207.818C20.5207 198.198 24.2791 187.673 26.7867 180.634C27.4857 178.673 28.1055 176.808 28.593 175.26C29.1128 176.935 29.7535 178.847 30.3789 180.621C32.8921 187.666 36.6392 198.179 40.078 207.818H17.0876ZM492.61 229.596C492.61 232.315 490.983 233.995 488.457 233.995C485.931 233.995 484.324 232.315 484.324 229.596V170.653C484.324 167.934 485.931 166.254 488.457 166.254C490.983 166.254 492.61 167.934 492.61 170.653V229.596ZM468.473 183.093C465.946 183.093 464.34 184.78 464.34 187.494V191.22C461.279 186.186 456.313 183.079 450.168 183.079C437.555 183.079 428.882 193.58 428.882 208.543C428.882 223.517 437.555 234.015 450.168 234.015C456.313 234.015 461.279 230.909 464.34 225.877V229.596C464.34 232.315 465.946 233.995 468.473 233.995C470.999 233.995 472.626 232.315 472.626 229.596V187.494C472.626 184.78 470.999 183.093 468.473 183.093ZM450.814 226.795C442.742 226.795 437.202 219.737 437.202 208.543C437.202 197.352 442.742 190.3 450.814 190.3C458.887 190.3 464.419 197.352 464.419 208.543C464.419 219.737 458.887 226.795 450.814 226.795Z" fill="black"/>
</svg>