<svg xmlns="http://www.w3.org/2000/svg" width="2428" height="778" viewBox="0 0 2428 778" fill="none">
  <path fill-rule="evenodd" clip-rule="evenodd" d="M1325.62 291.078V379.195L1360.17 459.841H1486.27L1428.36 342.14C1462.94 324.073 1478.49 287.953 1478.49 252.467C1478.49 193.001 1417.16 154.688 1329.37 154.688H1325.62V237.824C1340.56 240.315 1348.98 247.785 1348.98 265.23C1348.98 283.919 1340.57 289.522 1325.62 291.078Z" fill="black"/>
  <path fill-rule="evenodd" clip-rule="evenodd" d="M1325.62 237.837V154.701H1186.44V459.841H1301.96V369.857C1310.07 369.545 1316.6 369.545 1323.75 373.903L1325.63 379.195V291.078C1322.21 291.39 1318.46 291.39 1314.44 291.39H1302.61V236.579H1311.93C1316.9 236.579 1321.57 236.904 1325.62 237.837ZM1001.8 372.036V470.424C1098.01 469.49 1166.52 407.832 1166.52 307.887C1166.52 207.631 1098.63 145.661 1001.8 145.039V243.427C1034.81 243.739 1053.17 265.852 1053.17 307.887C1053.19 349.922 1034.81 371.711 1001.8 372.036ZM1001.8 243.427V145.039C1001.18 145.039 1000.56 144.74 999.934 144.74C902.168 144.74 833.039 207.32 833.039 307.9C833.039 408.468 903.102 470.437 999.934 470.437C1000.56 470.437 1001.18 470.723 1001.8 470.424V372.036H1000.87C967.873 372.036 949.495 350.233 949.495 307.9C949.495 265.243 967.873 243.129 1000.87 243.129C1001.18 243.129 1001.49 243.427 1001.8 243.427ZM365.998 352.101V419.661H408.344L416.749 459.841H524.164L421.729 154.688H365.998V279.25L388.423 352.101H365.998ZM365.998 279.25V154.688H303.107L202.54 459.841H313.068L323.652 419.661H365.998V352.101H342.951L364.753 273.945L365.998 279.25ZM815.919 424.018V282.363H669.27V347.743H710.371V382.308C648.726 388.831 617.897 373.903 618.83 306.953C619.453 259.315 644.044 236.579 668.647 233.168C683.29 231.301 700.41 239.394 713.172 255.891L808.448 214.79C790.706 177.749 735.896 146.608 688.88 145.986C563.086 143.807 505.488 211.068 505.488 312.258C505.488 406.6 563.709 461.722 680.164 469.503C737.776 472.603 775.752 456.728 815.919 424.018ZM0.756348 459.841H112.543V353.346H210.944V274.892H112.543V230.354H221.839V154.688H0.756348V459.841Z" fill="black"/>
  <path fill-rule="evenodd" clip-rule="evenodd" d="M2038.95 0.892822C2253.19 0.892822 2427.24 175.57 2427.24 389.467C2427.24 602.456 2253.19 777.12 2038.95 777.12C1852.14 777.12 1695.52 643.545 1659.08 467.623H1925.92L2042.38 349.313H1652.88C1655.67 323.464 1660.35 298.873 1667.83 275.203H2116.19L2232.65 156.582H1728.52C1799.52 62.2268 1912.23 0.892822 2038.95 0.892822Z" fill="#CC2229"/>
</svg>